/* XPM */
static char *SDL_POWERED_xpm[]={
(char*) "136 77 31 1",
(char*) "      c #FFFFFF",
(char*) "0     c #A0A3A7",
(char*) "1     c #FAFBFB",
(char*) "2     c #F7F8F8",
(char*) "3     c #F2F3F3",
(char*) "4     c #EEF0F1",
(char*) "5     c #E7E8E9",
(char*) "6     c #F5F6F6",
(char*) "7     c #E0E3E5",
(char*) "8     c #ACB2B5",
(char*) "9     c #D9DBDD",
(char*) "a     c #919AA4",
(char*) "b     c #354962",
(char*) "c     c #0E2644",
(char*) "d     c #C0C5CA",
(char*) "e     c #576778",
(char*) "f     c #9FA8B4",
(char*) "g     c #6E7A86",
(char*) "h     c #CED2D4",
(char*) "i     c #B6BBBF",
(char*) "j     c #B3B8BA",
(char*) "k     c #868F94",
(char*) "l     c #A6ACAF",
(char*) "m     c #7B8489",
(char*) "n     c #B31616",
(char*) "o     c #EAC1C1",
(char*) "p     c #C55151",
(char*) "q     c #DB9090",
(char*) "r     c #C87374",
(char*) "s     c #F8E9E9",
(char*) "t     c #A96063",
(char*) "                                                                                                                                        ",
(char*) "                                                                                                                                        ",
(char*) "                                                                                                                                        ",
(char*) "       000000000000000000000000000000000000000000000000000000000000000000000000000000000000000000000000000000000000000000000000         ",
(char*) "     00                                                                                             12                         00       ",
(char*) "    0                                                                                                 34                         0      ",
(char*) "    0                                                                                                  154                       0      ",
(char*) "   0                                                                                                     675                      0     ",
(char*) "   0                                                                                                      4894                    0     ",
(char*) "   0                                                                                                        3992                  0     ",
(char*) "   0              aabccccccbaad                                                                              2dd5                 0     ",
(char*) "   0           decccccccccccccccea    fccccccccccccccccaaa4             fccccccccg                            80h91               0     ",
(char*) "   0         7ecccccccccccccccccccca  fccccccccccccccccccccba           fccccccccg                              9hh6              0     ",
(char*) "   0        dcccccccccccccccccccccce  fcccccccccccccccccccccccf         fccccccccg                              1hdh4             0     ",
(char*) "   0       dccccccccccccccccccccccce  fccccccccccccccccccccccccb7       fccccccccg                               9bad5            0     ",
(char*) "   0      hcccccccccccccccccccccccce  fcccccccccccccccccccccccccch      fccccccccg                               5g0dd5           0     ",
(char*) "   0      bcccccccccccccccccccccccce  fccccccccccccccccccccccccccch     fccccccccg                                 9ddd5          0     ",
(char*) "   0     dccccccccccgf     aacccccce  fcccccccccccccccccccccccccccb4    fccccccccg                                  diid3         0     ",
(char*) "   0     ecccccccccd          jeccce  fccccccccg     4aecccccccccccg    fccccccccg                                  5iiid         0     ",
(char*) "   0     bcccccccca             dbce  fccccccccg        dbccccccccccd   fccccccccg                                  2kkji9        0     ",
(char*) "   0     cccccccccd               ee  fccccccccg         4eccccccccce   fccccccccg                                  fcc0jj4       0     ",
(char*) "   0     ccccccccca                   fccccccccg          4bccccccccch  fccccccccg                                  4gg888h       0     ",
(char*) "   0     cccccccccb7                  fccccccccg           dccccccccck  fccccccccg                                    dl8883      0     ",
(char*) "   0     ccccccccccckd                fccccccccg            eccccccccb  fccccccccg                                    9llllh      0     ",
(char*) "   0     ecccccccccccccead            fccccccccg            fccccccccc4 fccccccccg                                    70lll8      0     ",
(char*) "   0     acccccccccccccccccea4        fccccccccg            4cccccccccd fccccccccg                                    4000005     0     ",
(char*) "   0     4cccccccccccccccccccced      fccccccccg             cccccccccf fccccccccg                                    300000h     0     ",
(char*) "   0      accccccccccccccccccccce7    fccccccccg             bcccccccca fccccccccg                                   accgaa0d     0     ",
(char*) "   0       eccccccccccccccccccccccd   fccccccccg             ecccccccca fccccccccg                                   bccbaaai     0     ",
(char*) "   0        ecccccccccccccccccccccch  fccccccccg             ecccccccca fccccccccg                                   fccgaaa8     0     ",
(char*) "   0         fcccccccccccccccccccccb  fccccccccg             bcccccccca fccccccccg                                    dkkkkaj     0     ",
(char*) "   0           accccccccccccccccccccf fccccccccg             cccccccccf fccccccccg                                    0kkkkki     0     ",
(char*) "   0             habcccccccccccccccce fccccccccg            4cccccccccd fccccccccg                                   4kkkkkkd     0     ",
(char*) "   0                 daeccccccccccccc fccccccccg            fccccccccc4 fccccccccg                                   dmmkkkk9     0     ",
(char*) "   0                     fbcccccccccc4fccccccccg            eccccccccb  fccccccccg                                   kmmmmmk1     0     ",
(char*) "   0                      4bccccccccc7fccccccccg           dccccccccca  fccccccccg                               1feegmmmmml      0     ",
(char*) "   0                       jccccccccc7fccccccccg          4bccccccccc4  fccccccccg                               accccgmmmm9      0     ",
(char*) "   0    dcj                7ccccccccc4fccccccccg          ecccccccccg   fccccccccg                               mccccgggma       0     ",
(char*) "   0    dcced              jccccccccb fccccccccg        hbcccccccccc7   fccccccccg                               7bccbgggg9       0     ",
(char*) "   0    dccccef           hbcccccccck fccccccccg      aeccccccccccca    fccccccccg                               5geegggg0        0     ",
(char*) "   0    dccccccceaj     fkccccccccccd fccccccccccccccccccccccccccce     fccccccccccccccccccccccca               4mggggggm3        0     ",
(char*) "   0    dcccccccccccccccccccccccccce  fccccccccccccccccccccccccccb4     fccccccccccccccccccccccca              3kgggggggh         0     ",
(char*) "   0    dcccccccccccccccccccccccccc7  fcccccccccccccccccccccccccb4      fccccccccccccccccccccccca             3mgggggggj          0     ",
(char*) "   0    dcccccccccccccccccccccccccd   fcccccccccccccccccccccccce        fccccccccccccccccccccccca          0bmmggggggg0           0     ",
(char*) "   0    dccccccccccccccccccccccccd    fcccccccccccccccccccccccj         fccccccccccccccccccccccca         hccceggggggl            0     ",
(char*) "   0    7kccccccccccccccccccccce4     fccccccccccccccccccccba           fccccccccccccccccccccccca         5cccegggggj             0     ",
(char*) "   0       agccccccccccccccccgd       fcccccccccccccccbaaa              fccccccccccccccccccccccca        5kgeggggggh              0     ",
(char*) "   0          haabccccccceaf                                                                           2jmmmgggggk9               0     ",
(char*) "   0                                                                                                  hkmmmmmmmml2                0     ",
(char*) "   0                                                                                              acbkmmmmmmmmkh                  0     ",
(char*) "   0                                                                                              bccekkmmmmmi2                   0     ",
(char*) "   0                                                                                           2h0gbekkkkkkl4                     0     ",
(char*) "   0                                                                                      1  5daaakkkkkkk85                       0     ",
(char*) "   0                       161                                                          7bcklaaaaaaaaaai5                         0     ",
(char*) "   0                         24435                                                     5lcce000aaaaalh6                           0     ",
(char*) "   0                            3d541                                          13  49dlllam0000000d5                              0     ",
(char*) "   0                               357543d                                   27cc08888lllllll0ld7                                 nnno  ",
(char*) "   0                                  647d977546  9                  d83379hdiiebljj88888l8d94                                    nnno  ",
(char*) "   0                                      6459999dg99577775ge577799hhbbddddiiiiiiijjjjih94                                        nnno  ",
(char*) "   0                                          1645799999hhhddhhhhhhhdddddddddddidh9741                                            nnno  ",
(char*) "   0                                                 26445579999999999hh9975536                                                   nnno  ",
(char*) "   0                                                       pnnqqnnnq   ornnnpq onnno  qnnr  onnns qnnnnqs qnnpornq qpnnnro   qnnnqnnno  ",
(char*) "   0                                                       pnnnnnnnnq qnnnnnnnp nnnq  pnnn  qnnpspnnnnnnnsqnnnnnnqrnnnnnnno pnnnnnnnno  ",
(char*) "    0                                                      pnnp  qnnnonnnq onnnqqnnr snnnno rnnqrnnr  rnnrqnnnnnnqnnps qnnnqnnno 0nnno  ",
(char*) "    0                                                      pnnq  snnnnnnp   qnnponnn qnnnnq nnnonnns  onnnqnnno  pnno   nnnnnnq  0nnno  ",
(char*) "     00                                                    pnnq   nnnnnnr   qnnnsnnnornrpnponnnonnnnnnnnnnqnnp   nnnnnnnnnnnnno00 nnno  ",
(char*) "       0000000000000000000000000000000000000000000000000000pnnt000nnnnnnp000tnnn0pnntnnttnntnntrnnnnnnnnnntnnp000nnnnnnnnnnnnnt   nnno  ",
(char*) "                                                           pnnq  snnnnnnr   qnnp qnnnnnsonnnnnosnnns      qnnp   pnno      nnnq   nnno  ",
(char*) "                                                           pnnq  pnnnonnno onnnq snnnnp  nnnnn  pnnpo  sqpqnnp   qnnno   qppnnns onnno  ",
(char*) "                                                           pnnnnnnnno qnnnnnnnp   pnnnq  rnnnr  spnnnnnnnnqnnp    rnnnnnnnnsnnnnnnnnno  ",
(char*) "                                                           pnnppnnpo   ornnnpq    qnnno  qnnno    qpnnnnrqqnnp     ornnnnpqsopnnnonnno  ",
(char*) "                                                           pnnq                                                                         ",
(char*) "                                                           pnnq                                                                         ",
(char*) "                                                           pnnq                                                                         ",
(char*) "                                                           pnnq                                                                         ",
(char*) "                                                                                                                                        ",
(char*) "                                                                                                                                        "};
